<svg width="21" height="18" viewBox="0 0 21 18" fill="none" xmlns="http://www.w3.org/2000/svg">
<path d="M1.89095 17.7007C2.06755 17.8394 2.30689 17.8666 2.51022 17.7721L20.4645 9.45245C20.8839 9.25745 20.8839 8.57033 20.4645 8.37533L2.51022 0.055695C2.30689 -0.0389112 2.06755 -0.0116148 1.89095 0.127085C1.71495 0.264637 1.63417 0.492119 1.67541 0.710886L2.66417 5.64938L10.8148 8.35037C11.3004 8.51169 11.3004 9.31604 10.8148 9.47737L2.66417 12.1784L1.67541 17.1169C1.63139 17.3273 1.71003 17.5584 1.89095 17.7007Z" fill="white"/>
<path d="M0.474053 8.91393C0.474053 9.06598 0.532152 9.21804 0.648351 9.33407L2.34751 11.0315L8.74548 8.91393L2.34747 6.79639L0.648312 8.49379C0.532153 8.60983 0.474053 8.76188 0.474053 8.91393Z" fill="white"/>
</svg>
